<?xml version="1.0" encoding="UTF-8"?>
<svg width="159px" height="41px" viewBox="0 0 159 41" version="1.1" xmlns="http://www.w3.org/2000/svg" xmlns:xlink="http://www.w3.org/1999/xlink">
    <!-- Generator: Sketch 49 (51002) - http://www.bohemiancoding.com/sketch -->
    <title>Combined Shape</title>
    <desc>Created with Sketch.</desc>
    <defs></defs>
    <g id="Page-1" stroke="none" stroke-width="1" fill="none" fill-rule="evenodd">
        <g id="Artboard" transform="translate(-272.000000, -180.000000)" fill="#22272E">
            <g id="Base" transform="translate(148.000000, 81.000000)">
                <g id="Header">
                    <g id="Group-2" transform="translate(81.000000, 84.000000)">
                        <path d="M84.378,54.37 C84.378,54.734 84.112,55 83.776,55 L78.96,55 C78.456,55 78.05,54.594 78.05,54.09 L78.05,46.572 C78.05,46.068 78.456,45.662 78.96,45.662 L83.776,45.662 C84.112,45.662 84.378,45.928 84.378,46.292 C84.378,46.614 84.112,46.894 83.776,46.894 L79.436,46.894 L79.436,49.624 L83.678,49.624 C84.014,49.624 84.28,49.89 84.28,50.254 C84.28,50.576 84.014,50.856 83.678,50.856 L79.436,50.856 L79.436,53.768 L83.776,53.768 C84.112,53.768 84.378,54.048 84.378,54.37 Z M87.276,46.18 L87.276,54.468 C87.276,54.804 86.996,55.084 86.646,55.084 C86.31,55.084 86.03,54.804 86.03,54.468 L86.03,46.18 C86.03,45.858 86.31,45.578 86.674,45.578 C86.996,45.578 87.276,45.858 87.276,46.18 Z M89.908,45.732 C90.356,45.732 90.706,46.096 90.706,46.544 C90.706,46.978 90.356,47.342 89.908,47.342 C89.474,47.342 89.11,46.978 89.11,46.544 C89.11,46.096 89.474,45.732 89.908,45.732 Z M90.538,48.756 L90.538,54.468 C90.538,54.804 90.258,55.084 89.908,55.084 C89.572,55.084 89.292,54.804 89.292,54.468 L89.292,48.756 C89.292,48.434 89.572,48.154 89.936,48.154 C90.258,48.154 90.538,48.434 90.538,48.756 Z M95.704,54.51 C95.704,54.958 95.158,55.168 94.416,55.168 C93.352,55.168 92.792,54.58 92.792,53.516 L92.792,49.33 L92.134,49.33 C91.826,49.33 91.588,49.092 91.588,48.77 C91.588,48.476 91.826,48.238 92.134,48.238 L92.792,48.238 L92.792,46.908 C92.792,46.586 93.072,46.306 93.436,46.306 C93.772,46.306 94.052,46.586 94.052,46.908 L94.052,48.238 L94.976,48.238 C95.27,48.238 95.508,48.476 95.508,48.798 C95.508,49.092 95.27,49.33 94.976,49.33 L94.052,49.33 L94.052,53.222 C94.052,53.74 94.304,54.062 94.71,54.062 C94.864,54.062 95.032,53.992 95.172,53.992 C95.48,53.992 95.704,54.216 95.704,54.51 Z M103.082,51.388 C103.082,51.724 102.788,52.06 102.438,52.06 L97.734,52.06 C97.832,53.222 98.672,54.16 100.044,54.16 C100.618,54.16 101.374,53.824 101.864,53.46 C102.172,53.306 102.648,53.418 102.648,53.894 C102.648,54.65 100.912,55.168 99.918,55.168 C97.902,55.168 96.432,53.74 96.432,51.612 C96.432,49.652 97.846,48.07 99.806,48.07 C101.444,48.07 102.564,49.092 102.956,50.604 C103.012,50.828 103.082,51.122 103.082,51.388 Z M97.734,51.136 L101.878,51.136 C101.85,50.226 101.234,49.078 99.792,49.078 C98.448,49.078 97.79,50.198 97.734,51.136 Z M112.77,45.508 C114.226,45.508 115.248,46.096 115.962,46.894 C116.074,47.02 116.13,47.174 116.13,47.342 C116.13,47.692 115.836,47.986 115.472,47.986 C115.304,47.986 115.108,47.916 114.996,47.762 C114.45,47.132 113.582,46.74 112.77,46.74 C110.81,46.74 109.354,48.238 109.354,50.338 C109.354,52.424 110.81,53.936 112.77,53.936 C113.596,53.936 114.422,53.572 114.996,52.928 C115.108,52.788 115.304,52.704 115.486,52.704 C115.85,52.704 116.13,53.012 116.13,53.348 C116.13,53.516 116.074,53.67 115.962,53.782 C115.234,54.566 114.226,55.168 112.77,55.168 C110.054,55.168 107.912,53.208 107.912,50.338 C107.912,47.468 110.054,45.508 112.77,45.508 Z M123.606,48.756 L123.606,54.468 C123.606,54.804 123.326,55.084 122.976,55.084 C122.64,55.084 122.36,54.804 122.36,54.468 L122.36,54.076 C121.996,54.65 121.408,55.168 120.232,55.168 C118.804,55.168 117.796,54.034 117.796,52.606 L117.796,48.756 C117.796,48.434 118.076,48.154 118.44,48.154 C118.762,48.154 119.042,48.434 119.042,48.756 L119.042,52.172 C119.042,53.292 119.616,54.062 120.624,54.062 C121.632,54.062 122.36,53.124 122.36,51.976 L122.36,48.756 C122.36,48.434 122.64,48.154 123.004,48.154 C123.326,48.154 123.606,48.434 123.606,48.756 Z M130.564,52.956 C130.634,54.244 129.612,55.168 127.82,55.168 C126.896,55.168 125.874,54.902 125.258,54.286 C125.16,54.202 125.104,54.09 125.104,53.95 C125.104,53.656 125.356,53.432 125.65,53.432 C125.776,53.432 125.874,53.46 125.972,53.53 C126.476,53.894 127.176,54.174 127.876,54.174 C128.842,54.174 129.402,53.74 129.346,53.124 C129.206,51.626 125.342,52.326 125.216,50.058 C125.146,48.854 126.14,48.07 127.792,48.07 C128.758,48.07 129.612,48.364 130.144,48.882 C130.228,48.966 130.27,49.078 130.27,49.19 C130.27,49.47 130.032,49.68 129.78,49.68 C129.668,49.68 129.57,49.652 129.486,49.582 C129.052,49.274 128.45,49.064 127.806,49.064 C126.952,49.064 126.364,49.47 126.42,50.016 C126.56,51.234 130.438,50.576 130.564,52.956 Z M135.31,54.51 C135.31,54.958 134.764,55.168 134.022,55.168 C132.958,55.168 132.398,54.58 132.398,53.516 L132.398,49.33 L131.74,49.33 C131.432,49.33 131.194,49.092 131.194,48.77 C131.194,48.476 131.432,48.238 131.74,48.238 L132.398,48.238 L132.398,46.908 C132.398,46.586 132.678,46.306 133.042,46.306 C133.378,46.306 133.658,46.586 133.658,46.908 L133.658,48.238 L134.582,48.238 C134.876,48.238 135.114,48.476 135.114,48.798 C135.114,49.092 134.876,49.33 134.582,49.33 L133.658,49.33 L133.658,53.222 C133.658,53.74 133.91,54.062 134.316,54.062 C134.47,54.062 134.638,53.992 134.778,53.992 C135.086,53.992 135.31,54.216 135.31,54.51 Z M142.856,51.612 C142.856,53.558 141.554,55.168 139.44,55.168 C137.34,55.168 136.038,53.558 136.038,51.612 C136.038,49.666 137.34,48.07 139.44,48.07 C141.554,48.07 142.856,49.666 142.856,51.612 Z M141.554,51.612 C141.554,50.324 140.798,49.176 139.44,49.176 C138.096,49.176 137.326,50.324 137.326,51.612 C137.326,52.914 138.096,54.062 139.44,54.062 C140.798,54.062 141.554,52.914 141.554,51.612 Z M153.93,50.674 L153.93,54.468 C153.93,54.804 153.65,55.084 153.3,55.084 C152.964,55.084 152.684,54.804 152.684,54.468 L152.684,51.052 C152.684,49.974 152.25,49.176 151.27,49.176 C150.29,49.176 149.814,50.086 149.814,51.136 L149.814,54.468 C149.814,54.804 149.534,55.084 149.184,55.084 C148.848,55.084 148.568,54.804 148.568,54.468 L148.568,51.052 C148.568,49.974 148.176,49.176 147.196,49.176 C146.216,49.176 145.712,50.086 145.712,51.15 L145.712,54.468 C145.712,54.804 145.432,55.084 145.082,55.084 C144.746,55.084 144.466,54.804 144.466,54.468 L144.466,48.756 C144.466,48.434 144.746,48.154 145.11,48.154 C145.432,48.154 145.712,48.434 145.712,48.756 L145.712,49.05 C145.992,48.63 146.496,48.07 147.476,48.07 C148.596,48.07 149.338,48.784 149.548,49.358 C149.94,48.602 150.612,48.07 151.592,48.07 C152.992,48.07 153.93,49.302 153.93,50.674 Z M162.19,51.388 C162.19,51.724 161.896,52.06 161.546,52.06 L156.842,52.06 C156.94,53.222 157.78,54.16 159.152,54.16 C159.726,54.16 160.482,53.824 160.972,53.46 C161.28,53.306 161.756,53.418 161.756,53.894 C161.756,54.65 160.02,55.168 159.026,55.168 C157.01,55.168 155.54,53.74 155.54,51.612 C155.54,49.652 156.954,48.07 158.914,48.07 C160.552,48.07 161.672,49.092 162.064,50.604 C162.12,50.828 162.19,51.122 162.19,51.388 Z M156.842,51.136 L160.986,51.136 C160.958,50.226 160.342,49.078 158.9,49.078 C157.556,49.078 156.898,50.198 156.842,51.136 Z M167.342,48.7 C167.342,49.064 167.062,49.344 166.712,49.358 C165.648,49.414 165.032,50.114 165.032,50.996 L165.032,54.468 C165.032,54.804 164.752,55.084 164.402,55.084 L164.388,55.084 C164.052,55.07 163.786,54.804 163.786,54.468 L163.786,48.756 C163.786,48.434 164.066,48.154 164.43,48.154 C164.752,48.154 165.032,48.434 165.032,48.756 L165.032,49.288 C165.41,48.77 166.026,48.14 166.782,48.14 C167.104,48.14 167.342,48.378 167.342,48.7 Z M198.952224,31.3813974 C198.952224,31.2307988 199.0717,31.1065492 199.227064,31.1065492 L199.284531,31.1065492 C199.404007,31.1065492 199.48396,31.1685604 199.536884,31.2528321 L200.475885,32.7236107 L201.419655,31.2485163 C201.477122,31.1553859 201.556848,31.1065492 201.66792,31.1065492 L201.72516,31.1065492 C201.88007,31.1065492 202,31.2307988 202,31.3813974 L202,33.9772364 C202,34.1278351 201.88007,34.2477688 201.72516,34.2477688 C201.579335,34.2477688 201.455089,34.1235193 201.455089,33.9772364 L201.455089,32.1166732 L200.697347,33.2551353 C200.63988,33.3437227 200.56924,33.3971023 200.467253,33.3971023 C200.36981,33.3971023 200.298488,33.3437227 200.241248,33.2551353 L199.488049,32.1253047 L199.488049,33.9817794 C199.488049,34.132378 199.368573,34.2477688 199.217979,34.2477688 C199.067384,34.2477688 198.952224,34.132378 198.952224,33.9817794 L198.952224,31.3813974 Z M196.843663,31.6295851 L196.091142,31.6295851 C195.949178,31.6295851 195.838105,31.5144239 195.838105,31.3767756 C195.838105,31.2395817 195.949178,31.1241934 196.091142,31.1241934 L198.150865,31.1241934 C198.288059,31.1241934 198.398904,31.2395817 198.398904,31.3767756 C198.398904,31.5144239 198.288059,31.6295851 198.150865,31.6295851 L197.393346,31.6295851 L197.393346,33.9771012 C197.393346,34.1276965 197.2691,34.2476277 197.118505,34.2476277 C196.96791,34.2476277 196.843663,34.1276965 196.843663,33.9771012 L196.843663,31.6295851 Z M188.706679,15.2570662 C188.787315,15.177794 188.89816,15.1287316 189.020136,15.1287316 L194.556733,15.1287316 C194.803637,15.1287316 195.00375,15.3292971 195.00375,15.5761994 C195.00375,15.7213425 194.934699,15.8501314 194.827714,15.9319022 L186.700103,23.0075721 C186.619013,23.0882071 186.507486,23.1381782 186.38392,23.1381782 C186.252632,23.1381782 186.134518,23.0818472 186.052747,22.9918994 L183.284561,20.5823874 C183.212557,20.5028881 183.168491,20.3974946 183.168491,20.2818799 C183.168491,20.1444595 183.230274,20.0215762 183.328173,19.9391241 L188.706679,15.2570662 Z M188.706679,34.1190659 L183.328173,29.4374623 C183.230274,29.354783 183.168491,29.2321269 183.168491,29.0944794 C183.168491,28.9788646 183.212557,28.8734712 183.284561,28.7939718 L186.052747,26.3844599 C186.134518,26.2947392 186.252632,26.2381811 186.38392,26.2381811 C186.507486,26.2381811 186.619013,26.2881521 186.700103,26.36856 L194.827714,33.4442299 C194.934699,33.5260007 195.00375,33.6550168 195.00375,33.8001599 C195.00375,34.0470622 194.803637,34.2476277 194.556733,34.2476277 L189.020136,34.2476277 C188.89816,34.2476277 188.787315,34.1985652 188.706679,34.1190659 Z M173.927202,34.130109 C173.847702,34.2027946 173.741627,34.2477688 173.625103,34.2477688 L168.081474,34.2477688 C167.834571,34.2477688 167.634459,34.047202 167.634459,33.800071 C167.634459,33.6767326 167.68443,33.5649785 167.765293,33.484343 L177.479703,25.0300996 C177.577147,24.9481012 177.63893,24.8252171 177.63893,24.6877959 C177.63893,24.5578704 177.583507,24.4411192 177.495376,24.359575 L167.792777,15.9173703 C167.695787,15.8353718 167.634459,15.7131692 167.634459,15.5762023 C167.634459,15.3292984 167.834571,15.1287316 168.081474,15.1287316 L173.625103,15.1287316 C173.742081,15.1287316 173.848611,15.1734786 173.92811,15.2468457 L184.386184,24.3502622 C184.480902,24.4320335 184.54064,24.5526461 184.54064,24.6877959 C184.54064,24.8231728 184.480675,24.9446941 184.385502,25.0269197 L173.927202,34.130109 Z M165.630549,15.1278846 C165.872,15.1278846 166.068931,15.3232274 166.068931,15.5649073 L166.068931,33.8101507 C166.068931,34.0511492 165.872,34.2476277 165.630549,34.2476277 L161.657177,34.2476277 C161.415272,34.2476277 161.219477,34.0511492 161.219477,33.8101507 L161.219477,15.5649073 C161.219477,15.3232274 161.415272,15.1278846 161.657177,15.1278846 L165.630549,15.1278846 Z M154.269896,26.9918831 C154.33077,27.0423089 154.403229,27.0834219 154.488862,27.0834219 C154.659447,27.0834219 154.798004,26.9455458 154.798004,26.7747339 L154.798004,15.8641222 C154.798004,15.457081 155.127816,15.1272686 155.534856,15.1272686 L158.910658,15.1272686 C159.317699,15.1272686 159.647738,15.457081 159.647738,15.8641222 L159.647738,31.6692224 C159.647738,33.2823956 159.018097,33.9869948 158.401403,34.2575227 C157.784937,34.5280507 155.91464,34.4219746 154.798004,33.4498004 C153.681141,32.4778533 142.703084,22.9205627 142.703084,22.9205627 C142.703084,22.9205627 142.055953,22.3542939 142.010297,22.3184052 C141.964641,22.2825165 141.907174,22.261165 141.844255,22.261165 C141.695704,22.261165 141.575318,22.3815511 141.575318,22.5298758 L141.575318,33.510902 C141.575318,33.917716 141.245733,34.2477556 140.838465,34.2477556 L137.46289,34.2477556 C137.055623,34.2477556 136.726038,33.917716 136.726038,33.510902 L136.726038,17.7169319 C136.726038,16.1037586 137.355679,15.3991594 137.972145,15.1286315 C138.588839,14.8581036 140.458909,14.9639524 141.575318,15.9358995 C142.692181,16.9080738 153.670238,26.4653644 153.670238,26.4653644 C153.670238,26.4653644 154.231054,26.9596287 154.269896,26.9918831 Z M135.049752,33.5121076 C135.115396,33.5897906 135.155146,33.6906421 135.155146,33.8005793 C135.155146,34.0474838 134.955033,34.2480512 134.708129,34.2480512 L130.341307,34.2480512 C130.175038,34.2480512 130.030121,34.1576482 129.95312,34.0231795 L126.862841,29.5577741 C126.790837,29.4074054 126.637515,29.303601 126.459435,29.303601 L115.064813,29.303601 C114.88696,29.303601 114.733411,29.4074054 114.661407,29.5577741 L111.570901,34.0231795 C111.493672,34.1576482 111.348982,34.2480512 111.182941,34.2480512 L106.816119,34.2480512 C106.569215,34.2480512 106.369102,34.0474838 106.369102,33.8005793 C106.369102,33.6906421 106.408625,33.5897906 106.474496,33.5121076 L118.41676,16.2630906 L118.416306,16.2624092 C118.929422,15.5171528 119.788703,15.0287952 120.761783,15.0287952 L120.762237,15.0287952 C121.735545,15.0287952 122.594826,15.5171528 123.107942,16.2624092 L123.107488,16.2630906 L135.049752,33.5121076 Z M123.231764,25.047273 C123.380544,25.047273 123.500704,24.9271146 123.500704,24.7787907 C123.500704,24.7045151 123.470494,24.6375081 123.422112,24.5888997 L120.992336,21.0797773 C120.978934,21.0575173 120.956447,21.0434345 120.937594,21.0261717 C120.922602,21.012316 120.911018,20.9950532 120.8933,20.9850589 C120.860819,20.9668875 120.822658,20.9593918 120.783816,20.9559847 C120.776093,20.9550761 120.76996,20.9505333 120.76201,20.9503061 C120.754287,20.9505333 120.748154,20.9550761 120.740431,20.9559847 C120.70159,20.9593918 120.663429,20.9668875 120.630947,20.9850589 C120.61323,20.9950532 120.601646,21.012316 120.586654,21.0261717 C120.567574,21.0434345 120.545313,21.0575173 120.531912,21.0797773 L118.102136,24.5888997 C118.053526,24.6375081 118.023543,24.7045151 118.023543,24.7787907 C118.023543,24.9271146 118.143703,25.047273 118.292484,25.047273 L123.231764,25.047273 Z M104.811121,19.8315756 L104.799991,33.5107775 C104.799991,33.918044 104.47018,34.2476277 104.063139,34.2476277 L100.698245,34.2476277 C100.291432,34.2476277 99.9613936,33.918044 99.9613936,33.5107775 L99.9613936,19.8315756 C99.9613936,19.5846717 99.7612808,19.3847863 99.5143765,19.3847863 L92.6378533,19.3847863 C92.2308133,19.3847863 91.9007747,19.0549754 91.9007747,18.6479361 L91.9007747,15.8654406 C91.9007747,15.4586284 92.2308133,15.1285904 92.6378533,15.1285904 L112.134661,15.1285904 C112.541701,15.1285904 112.87174,15.4586284 112.87174,15.8654406 L112.87174,18.6479361 C112.87174,19.0549754 112.541701,19.3847863 112.134661,19.3847863 L105.258138,19.3847863 C105.011234,19.3847863 104.811121,19.5846717 104.811121,19.8315756 Z M89.6012205,15.1285904 C90.0082591,15.1285904 90.3380695,15.4586294 90.3380695,15.8654428 C90.3380695,15.8654428 90.3364795,26.3603652 90.3364795,28.5497981 C90.3364795,30.739231 89.3840726,32.1227599 87.5710242,33.2098671 C85.7579758,34.2972014 81.5340409,34.2481385 80.2813522,34.2481385 L78.9123666,34.2481385 L77.543381,34.2481385 C76.2906923,34.2481385 72.0667574,34.2972014 70.253709,33.2098671 C68.4408877,32.1227599 67.4882537,30.739231 67.4882537,28.5497981 C67.4882537,26.3603652 67.4866637,15.8654428 67.4866637,15.8654428 C67.4866637,15.4586294 67.8164741,15.1285904 68.2235127,15.1285904 L71.6008889,15.1285904 C72.0079276,15.1285904 72.3379651,15.4586294 72.3379651,15.8654428 L72.3379651,28.2635977 C72.3379651,29.571488 74.163052,29.9914757 76.4019919,29.9914757 L78.9123666,29.9914757 L81.4227413,29.9914757 C83.6616812,29.9914757 85.4869953,29.571488 85.4869953,28.2635977 L85.4869953,15.8654428 C85.4869953,15.4586294 85.8168056,15.1285904 86.2238443,15.1285904 L89.6012205,15.1285904 Z M60.5440193,26.9918831 C60.6048935,27.0423089 60.6773519,27.0834219 60.7627574,27.0834219 C60.9335684,27.0834219 61.0721253,26.9455458 61.0721253,26.7747339 L61.0721253,15.8641222 C61.0721253,15.457081 61.4021631,15.1272686 61.808975,15.1272686 L65.1847643,15.1272686 C65.5918034,15.1272686 65.9218412,15.457081 65.9218412,15.8641222 L65.9218412,31.6692224 C65.9218412,33.2823956 65.2919755,33.9869948 64.6755112,34.2575227 C64.0588198,34.5280507 62.188757,34.4219746 61.0721253,33.4498004 C59.9554936,32.4778533 48.9772504,22.9205627 48.9772504,22.9205627 C48.9772504,22.9205627 48.3301219,22.3542939 48.2844663,22.3184052 C48.2388107,22.2825165 48.1811166,22.261165 48.1184253,22.261165 C47.9701013,22.261165 47.8497159,22.3815511 47.8497159,22.5298758 L47.8497159,33.510902 C47.8497159,33.917716 47.5199052,34.2477556 47.1128662,34.2477556 L43.7370769,34.2477556 C43.3300378,34.2477556 43,33.917716 43,33.510902 L43,17.7169319 C43,16.1037586 43.6298657,15.3991594 44.24633,15.1286315 C44.8630214,14.8581036 46.7330842,14.9639524 47.8497159,15.9358995 C48.9663476,16.9080738 59.9445907,26.4653644 59.9445907,26.4653644 C59.9445907,26.4653644 60.505178,26.9596287 60.5440193,26.9918831 Z" id="Combined-Shape"></path>
                    </g>
                </g>
            </g>
        </g>
    </g>
</svg>